<svg id="svg" version="1.1" viewBox="0 0 300 300" width="300" height="300" xmlns="http://www.w3.org/2000/svg"><svg xmlns="http://www.w3.org/2000/svg"><defs><clipPath id="clip-1"><rect x="0" y="0" transform="scale(0.28195,0.28195)" width="1064" height="1064" fill="none"/></clipPath></defs><g clip-path="url(#clip-1)" fill="none" fill-rule="nonzero" stroke="none" stroke-width="1" stroke-linecap="butt" stroke-linejoin="miter" stroke-miterlimit="10" stroke-dasharray="" stroke-dashoffset="0" font-family="none" font-weight="none" font-size="none" text-anchor="none" style="mix-blend-mode: normal"><path d="M287.43045,7.24446c0.46805,0.16235 0.2594,0.0335 0.6062,0.45183c-1.69173,2.9618 -13.21748,14.32486 -16.0032,17.22499l-32.67011,34.13614l-164.73017,168.13675c-14.2985,14.81419 -28.73036,29.49925 -43.29361,44.0532c-3.56439,3.58929 -12.21719,13.25921 -15.79351,15.63045c2.00622,-4.18139 7.80522,-10.44953 10.8964,-14.14511c3.7941,-4.53581 32.54024,-42.65244 29.60848,-46.57585c-22.94492,-30.70404 -32.01406,-71.11325 -23.24154,-108.69135c7.46053,-32.47303 27.44013,-60.68712 55.59389,-78.50611c24.14662,-14.17886 46.68637,-20.23492 74.70789,-18.8722c20.47359,0.84406 40.40949,6.80225 57.98882,17.33075c1.76898,1.04436 8.90103,4.79408 8.77162,6.62312c-2.95235,3.72011 -8.51447,8.60695 -11.96532,12.23656c-3.83712,4.03647 -8.39154,8.4313 -12.44859,12.31692c-0.45367,0.43477 -1.50564,1.27923 -2.13412,1.05648c-2.8218,-1.00094 -5.75949,-3.33919 -8.46908,-4.51635c-8.91739,-3.87406 -18.25038,-7.09596 -27.96288,-7.95c-24.9344,-2.19276 -47.99436,3.33045 -67.51438,19.40921c-19.95169,16.4343 -30.68515,38.57961 -32.67011,64.08214c-1.00545,12.91692 1.2203,28.3985 6.15028,40.40949c0.93524,2.04699 1.84596,4.84539 3.37754,6.53036c5.05376,5.55987 13.00883,-0.09558 17.37011,-3.4235c7.80338,-5.95404 14.84521,-12.51118 22.0985,-18.97697c15.33778,-13.72021 30.44887,-27.6922 45.3265,-41.91006c32.96588,-31.17462 66.36964,-61.88289 100.20141,-92.11579c8.63543,-7.72883 17.60526,-16.56657 26.19897,-23.9451z" fill="#fefefe"/><path d="M250.68553,62.48882c1.92519,0.59323 5.91429,6.1562 7.13543,7.80564c9.93073,13.41541 18.28703,30.76607 21.95865,47.05827c7.79746,34.23947 1.67058,70.17462 -17.0343,99.89436c-16.90658,26.53224 -46.49549,47.15808 -77.20207,54.05583c-35.2968,7.92885 -69.64991,1.52199 -100.00714,-17.85254c-3.31664,-2.27256 -9.84107,-6.59126 -12.38684,-9.42632c1.29502,-2.36842 6.34962,-6.96654 8.47979,-9.15846c5.69408,-5.8593 11.67829,-11.55705 17.38308,-17.41184c2.83336,1.73459 6.30451,4.65564 9.48271,6.66288c11.43806,7.28205 24.38938,11.85367 37.86429,13.36523c3.88506,0.45705 7.06438,0.39868 10.93224,0.38882c4.29417,-0.011 7.79323,-0.03694 12.08036,-0.75987c70.2,-11.83759 100.55893,-92.36673 55.79211,-148.65592c1.91673,-3.1359 7.9593,-8.77669 10.77885,-11.54295c4.57923,-4.49267 9.94342,-10.26936 14.74286,-14.42312z" fill="#fefefe"/></g></svg></svg>